<svg width="20" height="21" viewBox="0 0 20 21" fill="none" xmlns="http://www.w3.org/2000/svg">
<path d="M1.66666 3.47298C1.66666 3.00627 1.66666 2.77292 1.75748 2.59466C1.83738 2.43785 1.96486 2.31037 2.12166 2.23048C2.29992 2.13965 2.53328 2.13965 2.99999 2.13965H6.99999C7.4667 2.13965 7.70005 2.13965 7.87831 2.23048C8.03512 2.31037 8.1626 2.43785 8.24249 2.59466C8.33332 2.77292 8.33332 3.00627 8.33332 3.47298V7.47298C8.33332 7.93969 8.33332 8.17305 8.24249 8.35131C8.1626 8.50811 8.03512 8.63559 7.87831 8.71549C7.70005 8.80631 7.4667 8.80631 6.99999 8.80631H2.99999C2.53328 8.80631 2.29992 8.80631 2.12166 8.71549C1.96486 8.63559 1.83738 8.50811 1.75748 8.35131C1.66666 8.17305 1.66666 7.93969 1.66666 7.47298V3.47298Z" stroke="white" stroke-width="1.5"/>
<path d="M1.66666 13.473C1.66666 13.0063 1.66666 12.7729 1.75748 12.5947C1.83738 12.4379 1.96486 12.3104 2.12166 12.2305C2.29992 12.1396 2.53328 12.1396 2.99999 12.1396H6.99999C7.4667 12.1396 7.70005 12.1396 7.87831 12.2305C8.03512 12.3104 8.1626 12.4379 8.24249 12.5947C8.33332 12.7729 8.33332 13.0063 8.33332 13.473V17.473C8.33332 17.9397 8.33332 18.173 8.24249 18.3513C8.1626 18.5081 8.03512 18.6356 7.87831 18.7155C7.70005 18.8063 7.4667 18.8063 6.99999 18.8063H2.99999C2.53328 18.8063 2.29992 18.8063 2.12166 18.7155C1.96486 18.6356 1.83738 18.5081 1.75748 18.3513C1.66666 18.173 1.66666 17.9397 1.66666 17.473V13.473Z" stroke="white" stroke-width="1.5"/>
<path d="M11.6667 3.47298C11.6667 3.00627 11.6667 2.77292 11.7575 2.59466C11.8374 2.43785 11.9649 2.31037 12.1217 2.23048C12.2999 2.13965 12.5333 2.13965 13 2.13965H17C17.4667 2.13965 17.7001 2.13965 17.8783 2.23048C18.0351 2.31037 18.1626 2.43785 18.2425 2.59466C18.3333 2.77292 18.3333 3.00627 18.3333 3.47298V7.47298C18.3333 7.93969 18.3333 8.17305 18.2425 8.35131C18.1626 8.50811 18.0351 8.63559 17.8783 8.71549C17.7001 8.80631 17.4667 8.80631 17 8.80631H13C12.5333 8.80631 12.2999 8.80631 12.1217 8.71549C11.9649 8.63559 11.8374 8.50811 11.7575 8.35131C11.6667 8.17305 11.6667 7.93969 11.6667 7.47298V3.47298Z" stroke="white" stroke-width="1.5"/>
<path d="M11.6667 13.473C11.6667 13.0063 11.6667 12.7729 11.7575 12.5947C11.8374 12.4379 11.9649 12.3104 12.1217 12.2305C12.2999 12.1396 12.5333 12.1396 13 12.1396H17C17.4667 12.1396 17.7001 12.1396 17.8783 12.2305C18.0351 12.3104 18.1626 12.4379 18.2425 12.5947C18.3333 12.7729 18.3333 13.0063 18.3333 13.473V17.473C18.3333 17.9397 18.3333 18.173 18.2425 18.3513C18.1626 18.5081 18.0351 18.6356 17.8783 18.7155C17.7001 18.8063 17.4667 18.8063 17 18.8063H13C12.5333 18.8063 12.2999 18.8063 12.1217 18.7155C11.9649 18.6356 11.8374 18.5081 11.7575 18.3513C11.6667 18.173 11.6667 17.9397 11.6667 17.473V13.473Z" stroke="white" stroke-width="1.5"/>
</svg>
