<svg width="60" height="61" viewBox="0 0 60 61" fill="none" xmlns="http://www.w3.org/2000/svg">
<rect y="0.473145" width="60" height="60" rx="8" fill="#DDF4F0"/>
<path d="M30.0003 42.1758H20.3629C19.6326 42.1758 18.9323 41.8857 18.4159 41.3693C17.8995 40.8529 17.6094 40.1526 17.6094 39.4223V22.9011C17.6094 22.1708 17.8995 21.4704 18.4159 20.9541C18.9323 20.4377 19.6326 20.1476 20.3629 20.1476H36.8841C37.6144 20.1476 38.3147 20.4377 38.8311 20.9541C39.3475 21.4704 39.6376 22.1708 39.6376 22.9011V31.8501M34.1306 17.394V22.9011M23.1164 17.394V22.9011M17.6094 28.4082H39.6376M42.3911 43.5526L35.5073 36.6687M35.5073 43.5526L42.3911 36.6687" stroke="#00C29F" stroke-width="2" stroke-linecap="round" stroke-linejoin="round"/>
</svg>
