<svg width="60" height="61" viewBox="0 0 60 61" fill="none" xmlns="http://www.w3.org/2000/svg">
<rect y="0.473145" width="60" height="60" rx="8" fill="#DDF4F0"/>
<path d="M41.9998 32.3193L34.3936 42.4732L29.3167 38.6701" stroke="#00C29F" stroke-width="2" stroke-linecap="round" stroke-linejoin="round"/>
<path d="M26.3077 26.7808C28.6018 26.7808 30.4616 24.9211 30.4616 22.627C30.4616 20.3329 28.6018 18.4731 26.3077 18.4731C24.0136 18.4731 22.1539 20.3329 22.1539 22.627C22.1539 24.9211 24.0136 26.7808 26.3077 26.7808Z" stroke="#00C29F" stroke-width="2" stroke-linecap="round" stroke-linejoin="round"/>
<path d="M22.6154 40.6272H18V37.858C18.0014 36.216 18.4895 34.6112 19.4024 33.2463C20.3154 31.8815 21.6123 30.8178 23.1295 30.1896C24.6466 29.5614 26.3159 29.3969 27.9264 29.7169C29.537 30.0368 31.0166 30.8269 32.1785 31.9872" stroke="#00C29F" stroke-width="2" stroke-linecap="round" stroke-linejoin="round"/>
</svg>
