<svg width="36" height="37" viewBox="0 0 36 37" fill="none" xmlns="http://www.w3.org/2000/svg">
<circle cx="18" cy="18.4731" r="17.5" fill="white" stroke="#E8ECF2"/>
<path fill-rule="evenodd" clip-rule="evenodd" d="M17.9945 13.5993C16.3417 11.6732 13.5856 11.1551 11.5148 12.9188C9.44402 14.6826 9.15248 17.6315 10.7787 19.7174C12.1308 21.4518 16.2226 25.1096 17.5637 26.2936C17.7138 26.426 17.7888 26.4922 17.8763 26.5183C17.9527 26.541 18.0362 26.541 18.1126 26.5183C18.2001 26.4922 18.2751 26.426 18.4252 26.2936C19.7663 25.1096 23.8581 21.4518 25.2102 19.7174C26.8364 17.6315 26.5805 14.664 24.4741 12.9188C22.3677 11.1737 19.6472 11.6732 17.9945 13.5993Z" stroke="#171E1D" stroke-width="1.5" stroke-linecap="round" stroke-linejoin="round"/>
</svg>
