<svg width="21" height="21" viewBox="0 0 21 21" fill="none" xmlns="http://www.w3.org/2000/svg">
<path d="M10.651 0.910645C7.91363 0.910645 5.68662 3.13765 5.68662 5.875V8.85361H4.69375C3.59861 8.85361 2.70801 9.74421 2.70801 10.8393V18.7823C2.70801 19.8774 3.59861 20.7681 4.69375 20.7681H16.6082C17.7033 20.7681 18.5939 19.8774 18.5939 18.7823V10.8393C18.5939 9.74421 17.7033 8.85361 16.6082 8.85361H15.6153V5.875C15.6153 3.13765 13.3883 0.910645 10.651 0.910645ZM16.6082 10.8393L16.6102 18.7823H4.69375V10.8393H16.6082ZM7.67236 8.85361V5.875C7.67236 4.23279 9.00876 2.89639 10.651 2.89639C12.2932 2.89639 13.6296 4.23279 13.6296 5.875V8.85361H7.67236Z" fill="#787878"/>
</svg>
