<svg width="21" height="21" viewBox="0 0 21 21" fill="none" xmlns="http://www.w3.org/2000/svg">
<path d="M19.3567 16.7928C18.8827 15.6701 18.1949 14.6503 17.3316 13.7903C16.4709 12.9277 15.4512 12.24 14.3291 11.7652C14.319 11.7601 14.309 11.7576 14.2989 11.7526C15.8642 10.6219 16.8818 8.78024 16.8818 6.70235C16.8818 3.26014 14.0929 0.471191 10.6507 0.471191C7.20846 0.471191 4.41951 3.26014 4.41951 6.70235C4.41951 8.78024 5.4371 10.6219 7.00243 11.7551C6.99238 11.7601 6.98233 11.7626 6.97228 11.7677C5.84665 12.2425 4.8366 12.9235 3.96976 13.7928C3.10722 14.6535 2.41952 15.6731 1.94464 16.7953C1.47811 17.8939 1.2265 19.0718 1.20343 20.2652C1.20276 20.292 1.20746 20.3187 1.21727 20.3436C1.22707 20.3686 1.24177 20.3914 1.2605 20.4106C1.27923 20.4298 1.30162 20.445 1.32634 20.4554C1.35106 20.4658 1.37761 20.4712 1.40444 20.4712H2.91197C3.02253 20.4712 3.11047 20.3833 3.11298 20.2752C3.16323 18.3355 3.94213 16.5189 5.31901 15.142C6.74363 13.7174 8.63559 12.9335 10.6507 12.9335C12.6657 12.9335 14.5577 13.7174 15.9823 15.142C17.3592 16.5189 18.1381 18.3355 18.1884 20.2752C18.1909 20.3858 18.2788 20.4712 18.3894 20.4712H19.8969C19.9237 20.4712 19.9503 20.4658 19.975 20.4554C19.9997 20.445 20.0221 20.4298 20.0408 20.4106C20.0596 20.3914 20.0743 20.3686 20.0841 20.3436C20.0939 20.3187 20.0986 20.292 20.0979 20.2652C20.0728 19.0642 19.824 17.8958 19.3567 16.7928ZM10.6507 11.024C9.4974 11.024 8.41197 10.5742 7.59539 9.75762C6.77881 8.94104 6.32906 7.85561 6.32906 6.70235C6.32906 5.54908 6.77881 4.46365 7.59539 3.64707C8.41197 2.83049 9.4974 2.38074 10.6507 2.38074C11.8039 2.38074 12.8894 2.83049 13.7059 3.64707C14.5225 4.46365 14.9723 5.54908 14.9723 6.70235C14.9723 7.85561 14.5225 8.94104 13.7059 9.75762C12.8894 10.5742 11.8039 11.024 10.6507 11.024Z" fill="#787878"/>
</svg>
