<svg width="20" height="21" viewBox="0 0 20 21" fill="none" xmlns="http://www.w3.org/2000/svg">
<path d="M13.541 12.36C12.5686 11.4956 11.3127 11.0181 10.0115 11.0181C8.71039 11.0181 7.4545 11.4956 6.48203 12.36C6.39986 12.4311 6.33263 12.5178 6.28426 12.6151C6.23588 12.7124 6.20732 12.8184 6.20023 12.9268C6.19315 13.0353 6.20767 13.144 6.24297 13.2468C6.27827 13.3496 6.33363 13.4443 6.40585 13.5255C6.47807 13.6067 6.5657 13.6727 6.66365 13.7198C6.76161 13.7668 6.86793 13.7939 6.97645 13.7995C7.08497 13.8052 7.19353 13.7891 7.29581 13.7525C7.39809 13.7158 7.49206 13.6591 7.57227 13.5858C8.24438 12.9884 9.11233 12.6585 10.0115 12.6585C10.9107 12.6585 11.7787 12.9884 12.4508 13.5858C12.6134 13.7304 12.8269 13.8044 13.0441 13.7916C13.2613 13.7788 13.4646 13.6803 13.6092 13.5176C13.7538 13.355 13.8278 13.1415 13.815 12.9243C13.8022 12.7071 13.7037 12.5038 13.541 12.3592V12.36Z" fill="#171E1D"/>
<path d="M10.0109 7.64893C7.80849 7.6459 5.68781 8.48299 4.08125 9.98956C3.99991 10.0624 3.93394 10.1508 3.8872 10.2495C3.84046 10.3482 3.8139 10.4552 3.80907 10.5643C3.80424 10.6734 3.82124 10.7824 3.85908 10.8848C3.89692 10.9872 3.95483 11.0811 4.02942 11.1609C4.104 11.2406 4.19377 11.3047 4.29344 11.3493C4.39311 11.3939 4.50069 11.4182 4.60987 11.4207C4.71904 11.4232 4.82762 11.4038 4.92922 11.3638C5.03083 11.3238 5.12342 11.2639 5.20156 11.1876C6.50604 9.96802 8.22514 9.28957 10.0109 9.28957C11.7967 9.28957 13.5158 9.96802 14.8203 11.1876C14.8985 11.2639 14.9911 11.3238 15.0927 11.3638C15.1943 11.4038 15.3028 11.4232 15.412 11.4207C15.5212 11.4182 15.6288 11.3939 15.7284 11.3493C15.8281 11.3047 15.9179 11.2406 15.9925 11.1609C16.067 11.0811 16.125 10.9872 16.1628 10.8848C16.2006 10.7824 16.2176 10.6734 16.2128 10.5643C16.208 10.4552 16.1814 10.3482 16.1347 10.2495C16.0879 10.1508 16.022 10.0624 15.9406 9.98956C14.3341 8.48299 12.2134 7.6459 10.0109 7.64893Z" fill="#171E1D"/>
<path d="M18.0469 7.34267C15.8353 5.36938 12.9749 4.27881 10.0109 4.27881C7.04697 4.27881 4.18661 5.36938 1.975 7.34267C1.89188 7.41367 1.82379 7.50057 1.77473 7.59826C1.72568 7.69594 1.69664 7.80245 1.68932 7.91152C1.68201 8.02059 1.69657 8.13003 1.73215 8.23339C1.76773 8.33675 1.82361 8.43196 1.8965 8.51342C1.9694 8.59488 2.05784 8.66095 2.15663 8.70775C2.25543 8.75455 2.36257 8.78113 2.47178 8.78592C2.58099 8.79072 2.69006 8.77365 2.79258 8.7357C2.89509 8.69775 2.98899 8.63969 3.06875 8.56494C4.97955 6.86079 7.45042 5.91902 10.0107 5.91902C12.5711 5.91902 15.0419 6.86079 16.9527 8.56494C17.1149 8.70998 17.3281 8.78465 17.5453 8.77252C17.7626 8.7604 17.9661 8.66247 18.1111 8.50029C18.2562 8.3381 18.3308 8.12494 18.3187 7.9077C18.3066 7.69046 18.2087 7.48693 18.0465 7.34189L18.0469 7.34267Z" fill="#171E1D"/>
<path d="M10.0109 17.0908C10.7013 17.0908 11.2609 16.5312 11.2609 15.8408C11.2609 15.1505 10.7013 14.5908 10.0109 14.5908C9.32058 14.5908 8.76094 15.1505 8.76094 15.8408C8.76094 16.5312 9.32058 17.0908 10.0109 17.0908Z" fill="#171E1D"/>
</svg>
