<svg width="157" height="41" viewBox="0 0 157 41" fill="none" xmlns="http://www.w3.org/2000/svg">
<path d="M83.1912 34.7237C81.6525 34.7237 80.405 33.4763 80.405 31.9375V6.16939C80.405 4.62042 81.6607 3.36475 83.2097 3.36475C84.7586 3.36475 86.0143 4.62043 86.0143 6.16939V14.9627C86.0143 15.544 85.3721 15.896 84.8821 15.5832L84.8193 15.5431C84.3901 15.2691 84.363 14.6533 84.7874 14.372C85.7488 13.7348 86.8056 13.2016 87.9577 12.7724C89.4594 12.213 90.9611 11.9333 92.4628 11.9333C94.1412 11.9333 95.5987 12.213 96.8354 12.7724C98.0721 13.3319 99.029 14.2447 99.7063 15.5108C100.413 16.7475 100.766 18.4259 100.766 20.5459V31.9191C100.766 33.4681 99.5106 34.7237 97.9616 34.7237C96.4127 34.7237 95.157 33.4681 95.157 31.9191V21.5176C95.157 19.8687 94.7595 18.6467 93.9645 17.8517C93.1989 17.0273 92.0358 16.615 90.4752 16.615C89.6802 16.615 88.8852 16.7328 88.0902 16.9684C87.4528 17.1572 86.8816 17.384 86.3767 17.6485C86.1482 17.7682 86.0139 18.0093 86.0132 18.2672L85.9774 31.9448C85.9734 33.4808 84.7272 34.7237 83.1912 34.7237Z" fill="#171E1D"/>
<path d="M113.601 35.3863C109.95 35.3863 107.211 34.3704 105.386 32.3387C103.56 30.307 102.647 27.3772 102.647 23.5493C102.647 19.4565 103.575 16.4825 105.43 14.6275C107.314 12.7724 110.023 11.8449 113.557 11.8449C116.03 11.8449 118.091 12.2866 119.74 13.17C121.389 14.0239 122.611 15.3194 123.406 17.0567C124.23 18.794 124.643 20.9582 124.643 23.5493C124.643 27.3772 123.686 30.307 121.772 32.3387C119.887 34.3704 117.164 35.3863 113.601 35.3863ZM113.601 30.7928C114.896 30.7928 115.942 30.4984 116.737 29.9095C117.561 29.3206 118.165 28.4961 118.548 27.4361C118.93 26.3466 119.122 25.051 119.122 23.5493C119.122 21.871 118.916 20.5018 118.503 19.4418C118.121 18.3817 117.517 17.6014 116.693 17.1009C115.897 16.6003 114.867 16.35 113.601 16.35C112.305 16.35 111.26 16.615 110.465 17.145C109.67 17.675 109.081 18.4701 108.698 19.5301C108.345 20.5901 108.168 21.9299 108.168 23.5493C108.168 25.9049 108.595 27.7011 109.449 28.9378C110.303 30.1745 111.687 30.7928 113.601 30.7928Z" fill="#171E1D"/>
<path d="M133.078 35.3863C131.488 35.3863 130.133 35.2096 129.015 34.8562C128.322 34.6557 127.646 34.427 126.987 34.1701C126.25 33.8823 125.79 33.1558 125.79 32.3639V31.106C125.79 30.0403 126.981 29.3888 127.91 29.9095C128.676 30.2923 129.486 30.6014 130.34 30.837C131.223 31.0726 132.165 31.1903 133.166 31.1903C134.344 31.1903 135.213 30.9695 135.772 30.5278C136.361 30.0567 136.656 29.4972 136.656 28.8495C136.656 28.2311 136.435 27.76 135.993 27.4361C135.551 27.0827 134.977 26.7883 134.271 26.5527C133.564 26.3172 132.813 26.0816 132.018 25.8461C131.282 25.6694 130.531 25.4338 129.765 25.1394C129.029 24.8449 128.352 24.4474 127.734 23.9468C127.115 23.4463 126.615 22.8132 126.232 22.0476C125.879 21.2526 125.702 20.2957 125.702 19.1767C125.702 17.8517 125.967 16.7328 126.497 15.82C127.027 14.9072 127.719 14.1711 128.573 13.6116C129.427 13.0522 130.369 12.6547 131.4 12.4191C132.43 12.1541 133.431 12.0216 134.403 12.0216C136.081 12.0805 137.436 12.2866 138.466 12.6399C139.126 12.8472 139.761 13.0966 140.372 13.3882C141.011 13.6929 141.386 14.3546 141.393 15.0623L141.393 15.1116C141.408 16.6184 139.794 17.5919 138.422 16.9684C137.451 16.4972 136.346 16.2617 135.11 16.2617C133.961 16.2617 133.063 16.4678 132.415 16.88C131.797 17.2628 131.488 17.8075 131.488 18.5142C131.488 19.1326 131.679 19.6331 132.062 20.0159C132.445 20.3987 132.945 20.6932 133.564 20.8993C134.182 21.1054 134.859 21.3115 135.596 21.5176C136.332 21.7237 137.097 21.9593 137.892 22.2243C138.687 22.4599 139.423 22.8132 140.101 23.2843C140.778 23.7555 141.323 24.3885 141.735 25.1835C142.177 25.9491 142.397 26.9797 142.397 28.2753C142.368 29.9831 141.912 31.367 141.028 32.427C140.145 33.4576 138.982 34.2085 137.539 34.6796C136.126 35.1507 134.639 35.3863 133.078 35.3863Z" fill="#171E1D"/>
<path d="M152.893 35.4304C150.596 35.4304 148.844 34.871 147.637 33.7521C146.43 32.6037 145.826 30.9548 145.826 28.8053V17.6162C145.826 17.2096 145.497 16.88 145.09 16.88H143.117C142.711 16.88 142.381 16.5505 142.381 16.1439V13.1994C142.381 12.7928 142.711 12.4633 143.117 12.4633H145.09C145.497 12.4633 145.826 12.1337 145.826 11.7271V9.21696C145.826 7.61921 147.121 6.32398 148.719 6.32398C150.317 6.32398 151.612 7.61921 151.612 9.21696V11.7271C151.612 12.1337 151.942 12.4633 152.348 12.4633H154.571C155.791 12.4633 156.78 13.452 156.78 14.6717C156.78 15.8913 155.791 16.88 154.571 16.88H152.348C151.942 16.88 151.612 17.2096 151.612 17.6162V27.9219C151.612 28.8347 151.789 29.512 152.142 29.9536C152.496 30.3953 153.114 30.6162 153.997 30.6162C154.468 30.6162 154.954 30.5425 155.455 30.3953C156.049 30.1971 156.78 30.6166 156.78 31.2434V33.4278C156.78 34.1679 156.367 34.8671 155.655 35.0703C155.392 35.1456 155.119 35.2067 154.836 35.2538C154.159 35.3715 153.511 35.4304 152.893 35.4304Z" fill="#171E1D"/>
<path d="M5.56512 31.9415C5.56512 33.4783 4.31932 34.7241 2.78256 34.7241C1.24579 34.7241 0 33.4783 0 31.9415V6.85433C0 5.31757 1.24579 4.07178 2.78256 4.07178C4.31932 4.07178 5.56512 5.31757 5.56512 6.85434V31.9415Z" fill="#171E1D"/>
<path d="M18.4013 35.3866C14.7501 35.3866 12.0117 34.3708 10.1862 32.339C8.36056 30.3073 7.44776 27.3775 7.44776 23.5497C7.44776 19.4568 8.37528 16.4829 10.2303 14.6278C12.1148 12.7728 14.8238 11.8453 18.3572 11.8453C20.8305 11.8453 22.8917 12.287 24.5406 13.1703C26.1895 14.0242 27.4115 15.3198 28.2065 17.0571C29.031 18.7943 29.4432 20.9585 29.4432 23.5497C29.4432 27.3775 28.4863 30.3073 26.5723 32.339C24.6878 34.3708 21.9642 35.3866 18.4013 35.3866ZM18.4013 30.7932C19.6969 30.7932 20.7422 30.4987 21.5372 29.9098C22.3617 29.3209 22.9653 28.4965 23.3481 27.4364C23.7309 26.347 23.9223 25.0514 23.9223 23.5497C23.9223 21.8713 23.7162 20.5021 23.3039 19.4421C22.9211 18.3821 22.3175 17.6018 21.4931 17.1012C20.698 16.6007 19.6675 16.3504 18.4013 16.3504C17.1057 16.3504 16.0604 16.6154 15.2654 17.1454C14.4704 17.6754 13.8815 18.4704 13.4987 19.5304C13.1454 20.5905 12.9687 21.9302 12.9687 23.5497C12.9687 25.9053 13.3957 27.7014 14.2496 28.9381C15.1035 30.1748 16.4874 30.7932 18.4013 30.7932Z" fill="#171E1D"/>
<path d="M41.4561 35.2099C39.9839 35.2099 38.5705 35.0038 37.216 34.5916C35.8616 34.1794 34.6543 33.5168 33.5943 32.604C32.5343 31.6912 31.6951 30.5134 31.0767 29.0706C30.4584 27.6278 30.1492 25.8759 30.1492 23.8147C30.1492 21.6652 30.4437 19.8396 31.0326 18.3379C31.6215 16.8362 32.4312 15.6142 33.4618 14.672C34.4924 13.7003 35.6849 13.0084 37.0394 12.5961C38.4233 12.1544 39.8808 11.9336 41.412 11.9336C42.5898 11.9336 43.797 12.0514 45.0337 12.287C45.7339 12.4203 46.3917 12.5867 47.0069 12.7862C47.839 13.0559 48.3463 13.8644 48.3463 14.7391V14.973C48.3463 16.4744 46.7943 17.4854 45.3429 17.1012C44.3417 16.8068 43.3112 16.6595 42.2511 16.6595C40.19 16.6595 38.5852 17.1748 37.4369 18.2054C36.2885 19.236 35.7143 20.9291 35.7143 23.2847C35.7143 25.6992 36.2296 27.4953 37.2602 28.6731C38.3202 29.8509 40.0575 30.4398 42.472 30.4398C43.5614 30.4398 44.6215 30.2779 45.652 29.954C46.7022 29.594 47.8503 30.4447 47.973 31.548C48.0034 31.8203 48.0482 32.0855 48.1033 32.3645C48.2598 33.1568 47.8846 33.9673 47.1271 34.2473C46.4893 34.4831 45.8357 34.6715 45.1662 34.8124C44.0473 35.0774 42.8106 35.2099 41.4561 35.2099Z" fill="#171E1D"/>
<circle cx="61.4387" cy="10.5842" r="2.98166" fill="#00C29F"/>
<path d="M78.0312 31.9416C78.0312 33.4784 76.7854 34.7242 75.2486 34.7242C73.7119 34.7242 72.4661 33.4784 72.4661 31.9416V6.11362C72.4661 4.57685 73.7119 3.33105 75.2486 3.33105C76.7854 3.33105 78.0312 4.57685 78.0312 6.11361V31.9416Z" fill="#171E1D"/>
<path d="M57.3906 39.1539C52.43 38.4188 48.9864 33.8005 49.7297 28.7851C49.9318 27.4211 50.0684 26.6302 50.2515 25.2635C50.3499 24.5028 51.6447 20.924 52.7672 19.8002C54.568 17.9975 55.3226 17.7234 57.26 17.0039C59.593 16.1374 62.7313 16.5979 64.6936 15.2808C66.0399 14.3805 66.9497 12.9409 67.1883 11.3306C67.2111 11.177 67.2272 11.0331 67.2365 10.8907C67.2441 10.7956 67.2479 10.6999 67.2503 10.604C67.253 10.5068 67.2531 10.4092 67.2505 10.3126C67.2436 10.0861 67.2245 9.86303 67.1936 9.64879C66.9185 7.74741 65.7272 6.123 64.0081 5.3052C63.8156 5.21338 63.6103 5.1289 63.3966 5.05766C63.3059 5.02708 63.2136 4.99889 63.1208 4.97328C63.0294 4.94787 62.9378 4.92374 62.8443 4.90329C62.7069 4.87106 62.566 4.84491 62.4154 4.8226C62.2648 4.80028 62.1211 4.78426 61.9803 4.77526C61.8862 4.76791 61.7915 4.76442 61.6966 4.76223C61.6004 4.75985 61.5039 4.76005 61.4082 4.76302C61.3361 4.76552 61.2638 4.76931 61.1941 4.77348C61.1244 4.77765 61.0542 4.7844 60.9865 4.79282C60.9189 4.79995 60.8526 4.80727 60.787 4.81865C60.6511 4.83807 60.5265 4.86048 60.4064 4.88752C58.5161 5.29573 56.9237 6.68565 56.2537 8.51421L56.2527 8.52067L56.2505 8.52693C56.234 8.568 56.2159 8.61938 56.1973 8.67465C56.1667 8.76638 56.1385 8.85978 56.1129 8.95356C56.0875 9.04606 56.0633 9.13873 56.0428 9.23327C56.0352 9.26644 56.0279 9.29832 56.0217 9.33168C55.668 9.95837 54.9573 10.3093 54.2516 10.2047C53.4003 10.0786 52.7769 9.35721 52.7672 8.48943C52.8345 8.17633 52.9202 7.862 53.0201 7.55769L53.0282 7.5378C54.4356 3.30384 58.6283 0.701061 62.9929 1.34784C65.3871 1.70262 67.5027 2.98664 68.9512 4.96168C70.4009 6.9369 71.0009 9.35717 70.6422 11.7778L67.7358 31.3905C66.9926 36.4059 62.3512 39.889 57.3906 39.1539Z" fill="#00C29F"/>
</svg>
