<svg width="21" height="21" viewBox="0 0 21 21" fill="none" xmlns="http://www.w3.org/2000/svg">
<path d="M5.66664 18.8063C5.2083 18.8063 4.8158 18.643 4.48914 18.3163C4.16247 17.9896 3.99942 17.5974 3.99997 17.1396V3.80632C3.99997 3.34798 4.1633 2.95548 4.48997 2.62882C4.81664 2.30215 5.20886 2.13909 5.66664 2.13965H17.3333V3.80632H15.6666V5.47298C15.6666 5.70909 15.5866 5.90715 15.4266 6.06715C15.2666 6.22715 15.0689 6.30687 14.8333 6.30632H8.16664C7.93053 6.30632 7.73247 6.22632 7.57247 6.06632C7.41247 5.90632 7.33275 5.70854 7.3333 5.47298V3.80632H5.66664V17.1396H9.04164C8.51386 16.7646 8.09719 16.2888 7.79164 15.7122C7.48608 15.1355 7.3333 14.5002 7.3333 13.8063V9.63965H15.6666V13.8063C15.6666 14.5008 15.5139 15.1363 15.2083 15.713C14.9027 16.2896 14.4861 16.7652 13.9583 17.1396H17.3333V18.8063H5.66664ZM11.5 16.3063C12.1944 16.3063 12.7847 16.0633 13.2708 15.5771C13.7569 15.091 14 14.5008 14 13.8063V11.3063H8.99997V13.8063C8.99997 14.5008 9.24303 15.091 9.72914 15.5771C10.2152 16.0633 10.8055 16.3063 11.5 16.3063ZM11.5 8.80632C11.7361 8.80632 11.9341 8.72632 12.0941 8.56632C12.2541 8.40632 12.3339 8.20854 12.3333 7.97298C12.3333 7.73687 12.2533 7.53882 12.0933 7.37882C11.9333 7.21882 11.7355 7.13909 11.5 7.13965C11.2639 7.13965 11.0658 7.21965 10.9058 7.37965C10.7458 7.53965 10.6661 7.73743 10.6666 7.97298C10.6666 8.20909 10.7466 8.40715 10.9066 8.56715C11.0666 8.72715 11.2644 8.80687 11.5 8.80632Z" fill="#171E1D"/>
</svg>
