<svg width="20" height="21" viewBox="0 0 20 21" fill="none" xmlns="http://www.w3.org/2000/svg">
<path d="M11.7292 17.3481C11.5764 17.5287 11.3856 17.6295 11.1567 17.6506C10.9278 17.6718 10.7228 17.6056 10.5417 17.4523L7.35416 14.7856C6.65972 14.2023 6.15972 13.494 5.85416 12.6606C5.54861 11.8273 5.47222 10.9731 5.625 10.0981L4.45833 9.11898C4.29166 8.9662 4.19805 8.78203 4.1775 8.56648C4.15694 8.35092 4.21555 8.15314 4.35333 7.97314H3.33333V9.63981C3.33333 10.0981 3.17 10.4906 2.84333 10.8173C2.51666 11.144 2.12444 11.307 1.66666 11.3065V2.97314C2.125 2.97314 2.5175 3.13648 2.84416 3.46314C3.17083 3.78981 3.33389 4.18203 3.33333 4.63981V6.30648H5.72916L7.02083 4.74398C7.17361 4.56342 7.36472 4.46259 7.59416 4.44148C7.82361 4.42037 8.02833 4.48648 8.20833 4.63981L9.35416 5.59814C10.2014 5.2787 11.0625 5.19537 11.9375 5.34814C12.8125 5.50092 13.5972 5.86898 14.2917 6.45231L17.4792 9.11898C17.6597 9.27176 17.7606 9.46287 17.7817 9.69231C17.8028 9.92176 17.7367 10.1195 17.5833 10.2856L11.7292 17.3481ZM10.9792 15.619L15.7917 9.84814L13.2083 7.72314C12.625 7.25092 11.9619 7.02176 11.2192 7.03564C10.4764 7.04953 9.75055 7.20231 9.04166 7.49398L7.77083 6.45231L6.16666 8.36898L7.41666 9.41064C7.25 10.1606 7.22916 10.9073 7.35416 11.6506C7.47916 12.394 7.83333 13.0084 8.41666 13.494L10.9792 15.619Z" fill="#171E1D"/>
</svg>
