<svg width="20" height="22" viewBox="0 0 20 22" fill="none" xmlns="http://www.w3.org/2000/svg">
<path d="M16.6667 10.9733H18.3333V12.7233H16.6667C15.5167 12.7233 14.3833 12.4171 13.3333 11.8483C11.25 12.9858 8.75 12.9858 6.66666 11.8483C5.61666 12.4171 4.475 12.7233 3.33333 12.7233H1.66666V10.9733H3.33333C4.49166 10.9733 5.65 10.5621 6.66666 9.80957C8.7 11.3058 11.3 11.3058 13.3333 9.80957C14.35 10.5621 15.5083 10.9733 16.6667 10.9733ZM16.6667 5.72332H18.3333V7.47332H16.6667C15.5167 7.47332 14.3833 7.16707 13.3333 6.59832C11.25 7.73582 8.75 7.73582 6.66666 6.59832C5.61666 7.16707 4.475 7.47332 3.33333 7.47332H1.66666V5.72332H3.33333C4.49166 5.72332 5.65 5.31207 6.66666 4.55957C8.7 6.05582 11.3 6.05582 13.3333 4.55957C14.35 5.31207 15.5083 5.72332 16.6667 5.72332ZM16.6667 16.2233H18.3333V17.9733H16.6667C15.5167 17.9733 14.3833 17.6671 13.3333 17.0983C11.25 18.2358 8.75 18.2358 6.66666 17.0983C5.61666 17.6671 4.475 17.9733 3.33333 17.9733H1.66666V16.2233H3.33333C4.49166 16.2233 5.65 15.8121 6.66666 15.0596C8.7 16.5558 11.3 16.5558 13.3333 15.0596C14.35 15.8121 15.5083 16.2233 16.6667 16.2233Z" fill="#171E1D"/>
</svg>
