<svg width="21" height="21" viewBox="0 0 21 21" fill="none" xmlns="http://www.w3.org/2000/svg">
<path d="M5.66662 12.1396H7.33328L9.83328 14.6396H8.16662L5.66662 12.1396ZM3.99995 3.80632H4.83328V2.97298C4.83328 2.75197 4.92108 2.54001 5.07736 2.38373C5.23364 2.22745 5.4456 2.13965 5.66662 2.13965H8.99995C9.22096 2.13965 9.43292 2.22745 9.5892 2.38373C9.74548 2.54001 9.83328 2.75197 9.83328 2.97298V3.80632H11.4999V2.97298C11.4999 2.75197 11.5877 2.54001 11.744 2.38373C11.9003 2.22745 12.1123 2.13965 12.3333 2.13965H15.6666C15.8876 2.13965 16.0996 2.22745 16.2559 2.38373C16.4122 2.54001 16.4999 2.75197 16.4999 2.97298V3.80632H17.3333C17.7753 3.80632 18.1992 3.98191 18.5118 4.29447C18.8244 4.60703 18.9999 5.03095 18.9999 5.47298V16.3063C18.9999 16.7483 18.8244 17.1723 18.5118 17.4848C18.1992 17.7974 17.7753 17.973 17.3333 17.973V18.8063H14.8333V17.973H6.49995V18.8063H3.99995V17.973C3.55792 17.973 3.134 17.7974 2.82144 17.4848C2.50888 17.1723 2.33328 16.7483 2.33328 16.3063V5.47298C2.33328 5.03095 2.50888 4.60703 2.82144 4.29447C3.134 3.98191 3.55792 3.80632 3.99995 3.80632ZM15.6666 6.30631C15.8876 6.30631 16.0996 6.39411 16.2559 6.55039C16.4122 6.70667 16.4999 6.91863 16.4999 7.13965C16.4999 7.36066 16.4122 7.57262 16.2559 7.7289C16.0996 7.88518 15.8876 7.97298 15.6666 7.97298C15.4456 7.97298 15.2336 7.88518 15.0774 7.7289C14.9211 7.57262 14.8333 7.36066 14.8333 7.13965C14.8333 6.91863 14.9211 6.70667 15.0774 6.55039C15.2336 6.39411 15.4456 6.30631 15.6666 6.30631ZM12.3333 6.30631C12.5543 6.30631 12.7663 6.39411 12.9225 6.55039C13.0788 6.70667 13.1666 6.91863 13.1666 7.13965C13.1666 7.36066 13.0788 7.57262 12.9225 7.7289C12.7663 7.88518 12.5543 7.97298 12.3333 7.97298C12.1123 7.97298 11.9003 7.88518 11.744 7.7289C11.5877 7.57262 11.4999 7.36066 11.4999 7.13965C11.4999 6.91863 11.5877 6.70667 11.744 6.55039C11.9003 6.39411 12.1123 6.30631 12.3333 6.30631ZM17.3333 5.47298H3.99995V8.80631H17.3333V5.47298ZM3.99995 16.3063H17.3333V10.473H3.99995V16.3063ZM5.66662 6.30631C5.88763 6.30631 6.09959 6.39411 6.25587 6.55039C6.41215 6.70667 6.49995 6.91863 6.49995 7.13965C6.49995 7.36066 6.41215 7.57262 6.25587 7.7289C6.09959 7.88518 5.88763 7.97298 5.66662 7.97298C5.4456 7.97298 5.23364 7.88518 5.07736 7.7289C4.92108 7.57262 4.83328 7.36066 4.83328 7.13965C4.83328 6.91863 4.92108 6.70667 5.07736 6.55039C5.23364 6.39411 5.4456 6.30631 5.66662 6.30631ZM11.4999 12.1396H13.1666L15.6666 14.6396H13.9999L11.4999 12.1396Z" fill="#171E1D"/>
</svg>
