<svg width="41" height="41" viewBox="0 0 41 41" fill="none" xmlns="http://www.w3.org/2000/svg">
<circle cx="31.751" cy="14.9463" r="9" fill="#FAC50A"/>
<path d="M37.3256 17.9486C35.6681 16.5369 33.5134 15.6333 31.193 15.6333C29.867 15.6333 28.5963 15.9157 27.3808 16.4239L26.9941 16.5933L26.8283 16.1981C26.3311 15.0686 25.6129 14.1086 24.7289 13.2616C24.3421 12.9228 23.9554 12.6404 23.5687 12.3581C22.7952 11.8498 21.9112 11.4545 21.0272 11.2286C20.309 11.0592 19.5908 10.9463 18.8173 10.9463C14.4526 10.9463 10.751 14.1086 10.0327 18.5133L9.9775 18.9651L9.53551 18.9086C9.14877 18.8522 8.70678 18.7957 8.26479 18.7957C4.12114 18.7957 0.750977 22.2404 0.750977 26.4757C0.750977 28.8475 1.8007 31.0498 3.6239 32.5181L3.67915 32.5745C5.22611 34.0992 7.21507 34.9463 9.36976 34.9463H31.3035C33.1267 34.9463 34.9499 34.3816 36.4968 33.3651C39.1488 31.5581 40.751 28.5651 40.751 25.2898C40.6957 22.3533 39.3698 19.7557 37.3256 17.9486Z" fill="#F4F4F4"/>
</svg>
