<svg width="48" height="48" viewBox="0 0 48 48" fill="none" xmlns="http://www.w3.org/2000/svg">
<circle cx="37.1761" cy="17.3963" r="10.575" fill="#FAC50A"/>
<path d="M43.7261 20.9241C41.7786 19.2652 39.2468 18.2036 36.5203 18.2036C34.9623 18.2036 33.4692 18.5353 32.041 19.1325L31.5866 19.3316L31.3919 18.8671C30.8076 17.5401 29.9637 16.4121 28.925 15.4168C28.4706 15.0186 28.0162 14.6869 27.5618 14.3551C26.6529 13.7579 25.6142 13.2935 24.5756 13.0281C23.7316 12.829 22.8877 12.6963 21.9789 12.6963C16.8504 12.6963 12.501 16.4121 11.6571 21.5876L11.5921 22.1184L11.0728 22.0521C10.6184 21.9857 10.099 21.9193 9.57971 21.9193C4.71092 21.9193 0.750977 25.9669 0.750977 30.9433C0.750977 33.7302 1.9844 36.3179 4.12667 38.0431L4.19158 38.1095C6.00926 39.901 8.34628 40.8963 10.878 40.8963H36.6501C38.7924 40.8963 40.9347 40.2328 42.7524 39.0384C45.8684 36.9151 47.751 33.3984 47.751 29.5499C47.6861 26.0996 46.128 23.0473 43.7261 20.9241Z" fill="#F4F4F4"/>
</svg>
