<svg width="13" height="20" viewBox="0 0 13 20" fill="none" xmlns="http://www.w3.org/2000/svg">
<path d="M9.82925 5.66747C9.67639 6.46791 8.90359 6.99287 8.10316 6.84001C7.30272 6.68715 6.77776 5.91435 6.93062 5.11392C7.08348 4.31348 7.85627 3.78851 8.65671 3.94137C9.45715 4.09423 9.98211 4.86703 9.82925 5.66747Z" fill="#00C29F"/>
<path d="M3.76027 18.9021C1.41727 18.0843 0.17214 15.5198 0.998966 13.1509C1.22383 12.5066 1.36365 12.1349 1.57951 11.4876C1.69796 11.1269 2.65952 9.50751 3.30949 9.06548C4.35217 8.35637 4.74441 8.29319 5.75289 8.1233C6.96736 7.91871 8.45006 8.43386 9.52614 7.97577C10.2641 7.66316 10.84 7.04783 11.1055 6.28725C11.1308 6.21472 11.152 6.14623 11.1697 6.07791C11.1823 6.03237 11.193 5.9862 11.2031 5.93982C11.2134 5.89282 11.2225 5.84541 11.2302 5.79818C11.2479 5.68745 11.2593 5.57726 11.2642 5.47026C11.3069 4.5205 10.8786 3.62032 10.1189 3.06323C10.0339 3.00073 9.94197 2.94061 9.84468 2.88614C9.80344 2.86286 9.76117 2.84059 9.71848 2.81953C9.67639 2.79869 9.63409 2.77846 9.59055 2.75984C9.52676 2.73142 9.4607 2.70563 9.38958 2.6808C9.31845 2.65598 9.25009 2.63485 9.18247 2.61741C9.1374 2.60509 9.0917 2.59461 9.04578 2.58474C8.99926 2.57465 8.95231 2.56579 8.90555 2.55835C8.87027 2.55288 8.83477 2.54801 8.80049 2.54356C8.7662 2.53911 8.73149 2.53589 8.69777 2.53369C8.66426 2.53088 8.63135 2.52828 8.59841 2.52773C8.53055 2.52455 8.4679 2.52388 8.40702 2.52587C7.45028 2.54882 6.54725 3.07662 6.05181 3.90325L6.05074 3.90629L6.04908 3.90913C6.03723 3.92756 6.02369 3.95086 6.00951 3.976C5.98614 4.01775 5.96377 4.06053 5.94261 4.10374C5.92165 4.14634 5.9013 4.18914 5.88255 4.23319C5.87581 4.24861 5.86929 4.26343 5.86316 4.27906C5.63305 4.55085 5.25505 4.65547 4.92171 4.53912C4.51966 4.39879 4.28357 3.99027 4.35942 3.56756C4.42118 3.42162 4.49202 3.27679 4.56882 3.13814L4.57463 3.12923C5.65173 1.20183 7.93134 0.325875 9.99284 1.04541C11.1237 1.4401 12.0328 2.26062 12.5535 3.3551C13.0749 4.44978 13.1418 5.68191 12.7428 6.82523L9.50951 16.0887C8.68269 18.4576 6.10328 19.7199 3.76027 18.9021Z" fill="#00C29F"/>
</svg>
